PathFileType	4	(X/Y/Z)	s01c0302.trc
DataRate	CameraRate	NumFrames	NumMarkers	Units	OrigDataRate	OrigDataStartFrame	OrigNumFrames
200	200	4	48	mm	200	1750	2000
Frame#	Time	racr			lacr			c7			jug			rlel			rdr			llel			ldr			s2			lic			ric			lasi			rasi			rpsi			lpsi			rgt			lgt			rth1			rth2			rth3			rth4			rlfc			rsh1			rsh2			rsh3			rsh4			rlmal			rmmal			rcal			rtoe			rmt5			lth1			lth2			lth4			lth3			llfc			lsh1			lsh2			lsh3			lsh4			llmal			lmmal			lcal			ltoe			lmt5			SBIKE			LBIKE			RBIKE			
		X1	Y1	Z1	X2	Y2	Z2	X3	Y3	Z3	X4	Y4	Z4	X5	Y5	Z5	X6	Y6	Z6	X7	Y7	Z7	X8	Y8	Z8	X9	Y9	Z9	X10	Y10	Z10	X11	Y11	Z11	X12	Y12	Z12	X13	Y13	Z13	X14	Y14	Z14	X15	Y15	Z15	X16	Y16	Z16	X17	Y17	Z17	X18	Y18	Z18	X19	Y19	Z19	X20	Y20	Z20	X21	Y21	Z21	X22	Y22	Z22	X23	Y23	Z23	X24	Y24	Z24	X25	Y25	Z25	X26	Y26	Z26	X27	Y27	Z27	X28	Y28	Z28	X29	Y29	Z29	X30	Y30	Z30	X31	Y31	Z31	X32	Y32	Z32	X33	Y33	Z33	X34	Y34	Z34	X35	Y35	Z35	X36	Y36	Z36	X37	Y37	Z37	X38	Y38	Z38	X39	Y39	Z39	X40	Y40	Z40	X41	Y41	Z41	X42	Y42	Z42	X43	Y43	Z43	X44	Y44	Z44	X45	Y45	Z45	X46	Y46	Z46	X47	Y47	Z47	X48	Y48	Z48	
1750	8.7500	556.172369	1351.029942	-152.127280	585.188555	1339.648650	-459.785145	521.045703	1413.153986	-305.322362	521.524893	1252.572893	-303.714211	597.336923	1079.394315	-46.975492	726.821492	854.483411	-82.740925	585.498562	1061.240130	-564.183580	707.180723	860.655599	-464.565200	0.000000	0.000000	-0.000000	158.965948	1159.088124	-463.552959	149.176858	1211.083089	-151.183204	139.687975	1103.722582	-439.137395	156.748749	1158.733930	-171.204660	20.067861	1250.296047	-260.530172	17.509579	1233.628909	-363.844524	71.980493	1135.026526	-92.645591	47.627049	1034.998456	-473.879881	172.149101	1061.754443	-60.923477	249.038918	1030.156194	-58.268715	329.736836	988.762344	-60.742955	271.574107	1075.480504	-83.722307	398.474357	899.825587	-73.067178	306.339317	822.908094	-53.184132	249.328599	760.665706	-63.239206	184.510866	702.333457	-81.660955	287.753419	727.647655	-95.961317	95.969143	613.884534	-107.391572	141.218311	613.715717	-183.392866	40.301125	600.527070	-161.768283	286.578769	486.792816	-144.936931	178.323205	497.442620	-75.904380	67.863539	912.244429	-473.276808	114.855800	836.521249	-470.875043	162.186018	864.793796	-469.920491	153.761899	763.228609	-448.906551	199.611914	652.445667	-429.223620	157.571058	548.469532	-457.599768	159.748962	461.758494	-449.283385	159.421161	377.132873	-432.954394	215.952562	466.372710	-423.583462	157.649157	249.630391	-409.858147	0.000000	0.000000	-0.000000	115.260960	220.709249	-366.968510	389.076818	177.987374	-384.504184	280.641095	164.334807	-446.611036	-230.001097	890.357804	-256.221816	-22.780318	80.200893	-456.484392	-22.854989	80.407674	-56.243324	
1751	8.7550	555.279261	1350.739014	-152.270528	584.019525	1339.294780	-459.948955	519.880964	1412.851937	-305.428766	520.625004	1252.280211	-303.735191	596.974008	1079.249672	-46.987114	726.751710	854.486879	-82.678564	584.672316	1060.947072	-564.497586	706.964157	860.732971	-464.662524	0.000000	0.000000	-0.000000	157.724577	1158.861565	-463.514558	148.205936	1210.832764	-151.064665	138.446635	1103.431785	-439.038514	155.713706	1158.415413	-171.068702	18.989362	1250.155935	-260.324500	16.451437	1233.465529	-363.710166	71.053796	1134.855211	-92.523906	46.342914	1034.816269	-473.695488	171.076176	1061.481255	-60.973746	247.968979	1029.811431	-58.285199	328.569607	988.242853	-60.808585	270.561539	1075.045769	-83.714025	397.290691	899.282532	-73.152272	305.007313	822.482342	-53.289050	248.009032	760.204529	-63.270398	183.170872	701.858202	-81.696372	286.379127	727.156552	-96.000849	94.604381	613.358025	-107.425399	139.990028	613.217607	-183.869117	38.981353	599.918049	-161.794931	285.524127	486.600459	-144.877132	177.231548	497.147897	-75.851963	66.728980	912.066357	-473.102436	113.795077	836.411621	-470.768038	161.092550	864.738460	-469.987856	152.878720	763.143941	-448.869800	199.026931	652.580391	-429.170883	157.272681	548.442956	-457.545348	159.683502	461.733537	-449.219280	159.628553	377.085938	-432.919339	215.897241	466.507951	-423.559405	158.184654	249.545285	-409.900117	0.000000	0.000000	-0.000000	115.944935	220.488959	-366.960402	389.882070	178.675663	-384.509337	281.504260	164.642751	-446.613494	-230.009313	890.355773	-256.236280	-22.779005	80.197099	-456.483072	-22.838653	80.392244	-56.240543	
1752	8.7600	554.354637	1350.516249	-152.396080	582.840797	1338.971080	-460.085456	518.723769	1412.540645	-305.544348	519.571368	1251.910139	-303.933610	596.610656	1079.099550	-46.971880	726.684588	854.502760	-82.639258	583.846388	1060.591393	-564.862098	706.785571	860.790591	-464.770157	0.000000	0.000000	-0.000000	156.475350	1158.568932	-463.416185	147.153937	1210.565882	-150.979529	137.199616	1103.167391	-438.935884	154.580942	1158.091666	-171.019700	17.869874	1250.028999	-260.145035	15.265235	1233.278544	-363.504297	70.033750	1134.703509	-92.368360	45.053442	1034.665069	-473.551172	170.036677	1061.210371	-60.962020	246.922862	1029.418585	-58.249623	327.485405	987.730565	-60.797972	269.547323	1074.658406	-83.666805	396.209500	898.706533	-73.299341	303.664258	822.058441	-53.360067	246.723241	759.797269	-63.280308	181.913984	701.423004	-81.653763	285.077868	726.701565	-95.997708	93.247003	612.908353	-107.313801	138.994824	612.867658	-183.625183	38.407218	598.531699	-162.486503	284.397495	486.421356	-144.886164	176.204081	496.818460	-75.826524	65.625177	911.877387	-472.950628	112.792471	836.311576	-470.673724	160.156986	864.634401	-470.082411	152.009581	763.055447	-448.811928	198.436558	652.631123	-429.080738	156.953970	548.383071	-457.438500	159.613351	461.700209	-449.146502	159.833083	377.028472	-432.855974	215.833149	466.609159	-423.513761	158.792797	249.473747	-409.867377	0.000000	0.000000	-0.000000	116.613605	220.253226	-366.944568	390.636963	179.413653	-384.526964	282.345910	164.953270	-446.611679	-230.011325	890.348941	-256.223180	-22.780799	80.199225	-456.481770	-22.861235	80.405700	-56.247129	
1753	8.7650	553.465376	1350.201519	-152.500981	581.677420	1338.638978	-460.283212	517.575490	1412.234602	-305.659906	518.619837	1251.523360	-303.901821	596.188843	1078.924529	-46.968994	726.641964	854.493626	-82.579908	583.036234	1060.240582	-565.228294	706.584616	860.822881	-464.846030	0.000000	0.000000	-0.000000	155.248664	1158.278231	-463.396089	146.138062	1210.320295	-150.901498	135.985112	1102.908583	-438.798259	153.517817	1157.784439	-170.864814	16.721553	1249.909615	-259.967194	14.053370	1233.048749	-363.205708	69.037490	1134.577802	-92.187941	43.814757	1034.470897	-473.407154	168.988259	1060.903995	-60.896499	245.811765	1029.056284	-58.160361	326.370043	987.307194	-60.775774	268.512525	1074.275577	-83.605017	394.753673	898.292996	-73.282792	302.421962	821.646703	-53.327806	245.426292	759.388543	-63.290208	180.559984	700.953250	-81.650272	283.661946	726.126561	-96.187255	92.100953	612.392299	-107.402815	136.578346	612.111544	-184.019738	36.470985	598.713491	-161.683817	283.396445	486.218585	-144.842945	175.156447	496.439495	-75.848487	64.539689	911.655793	-472.814760	111.762464	836.158611	-470.585979	159.095107	864.578045	-470.065580	151.149848	762.965532	-448.736822	197.877505	652.691428	-428.998042	156.674340	548.347817	-457.366131	159.536391	461.659959	-449.076466	159.996270	376.995879	-432.817959	215.776030	466.698880	-423.459951	159.345604	249.357878	-409.795330	0.000000	0.000000	-0.000000	117.261363	220.012984	-366.924740	391.411981	180.025717	-384.555188	283.145585	165.256319	-446.615475	-229.992738	890.347589	-256.217830	-22.778295	80.196399	-456.480456	-22.845778	80.402761	-56.252019	
